PathFileType	3	(X/Y/Z)	D:\minhoCalibration\240510\subject2_KPNP\preferred\preferred20.trc
DataRate	CameraRate	NumFrames	NumMarkers	Units	OrigDataRate	OrigDataStartFrame	OrigNumFrames
200.0	200.0	21	10	mm	200.0	537	176	
Frame#	Time	Left_Ankle_Outer1			Left_Ankle_Inner1			Left_Knee_Outer1			Left_Knee_Inner1			Left_Wrist1			Right_Wrist1			Right_Knee_Inner1			Right_Knee_Outer1			Right_Ankle_Inner1			Right_Ankle_Outer1			
		X1	Y1	Z1	X2	Y2	Z2	X3	Y3	Z3	X4	Y4	Z4	X5	Y5	Z5	X6	Y6	Z6	X7	Y7	Z7	X8	Y8	Z8	X9	Y9	Z9	X10	Y10	Z10	
537	2.675	-714.9859	130.07681	-623.81549	-711.95508	133.18069	-568.19183	-534.26361	540.30865	-675.8512	-550.36932	527.11908	-580.49878	-667.90155	954.30927	-777.91205	-665.71661	1185.5913	-515.89386	-445.47318	990.10999	-170.74731	-480.94342	1072.1238	-161.16008	-347.07791	925.40405	217.12956	-387.17789	1014.4329	248.54161
538	2.68	-714.99084	130.16972	-623.22742	-712.3175	133.26704	-567.32477	-535.30237	539.91583	-675.55872	-549.59241	527.12134	-580.97028	-665.99811	956.48083	-779.19135	-666.93634	1184.1727	-514.46979	-450.30411	987.67328	-168.11716	-486.06036	1070.17	-157.49091	-350.83325	919.00165	218.4409	-390.75314	1006.4094	249.90903
539	2.685	-714.99091	130.04434	-622.93964	-711.94403	133.34987	-567.00806	-535.74274	540.17938	-675.94794	-548.9588	526.75122	-581.63934	-663.9928	958.57019	-780.62537	-668.39557	1182.6831	-512.85132	-455.26584	984.96399	-165.97717	-491.02991	1068.0397	-154.26286	-356.0838	910.11395	218.33534	-395.20453	998.21625	250.74002
540	2.69	-714.88055	129.55013	-622.86249	-712.24689	133.06248	-567.04388	-537.14709	539.21185	-676.41272	-548.67566	526.14716	-582.45026	-661.80219	960.49854	-782.09564	-670.4563	1180.8489	-511.52438	-460.42361	981.64679	-164.3775	-495.63916	1065.1438	-152.13914	-361.36035	901.91626	217.62331	-399.31531	989.83667	251.61841
541	2.695	-715.16467	129.26651	-623.34827	-712.84937	132.29095	-567.69049	-538.33588	538.36401	-677.05237	-548.75568	525.19653	-583.32672	-659.39349	962.20398	-783.55511	-672.60431	1179.3237	-510.05991	-464.38263	978.37921	-164.12604	-500.00519	1061.5153	-151.0145	-366.75977	895.56921	217.37959	-404.49295	981.46808	252.88519
542	2.7	-715.30975	128.80444	-624.01538	-713.24622	131.40428	-568.90973	-539.35529	537.61469	-677.81866	-549.29236	524.10583	-584.16272	-656.99359	963.60138	-784.9295	-675.55164	1177.7281	-509.06842	-468.57291	974.35248	-163.98314	-503.93359	1057.5436	-150.64494	-374.66104	884.40808	218.26544	-410.3161	972.58282	254.03467
543	2.705	-715.48828	128.35721	-624.89343	-713.30133	131.59134	-568.97034	-541.09363	535.82324	-678.31342	-550.38641	522.883	-584.82269	-654.47632	964.7254	-785.90442	-678.7796	1176.4391	-508.49365	-471.42242	970.58936	-164.88699	-507.28946	1053.4465	-150.70178	-379.98279	878.18677	218.18625	-417.46149	963.20874	254.99081
544	2.71	-715.53528	127.5116	-625.48523	-714.11664	130.78006	-569.96216	-541.83887	534.75403	-679.37482	-551.9975	521.57953	-585.28632	-651.88916	965.57318	-786.5329	-682.16608	1175.3506	-508.66693	-473.7005	966.4967	-165.92261	-510.50354	1049.1808	-150.8652	-392.65839	866.14215	222.56068	-424.89008	952.92059	255.32188
545	2.715	-715.76697	126.78079	-626.4032	-714.95618	130.19096	-570.54919	-543.78131	533.14014	-679.30927	-553.9585	520.32544	-585.63776	-649.271	966.02118	-786.66467	-685.61066	1174.915	-508.45511	-475.98767	962.13965	-166.83531	-512.53778	1044.9198	-151.299	-397.02759	857.4339	217.98618	-432.67944	942.62592	256.15646
546	2.72	-716.16119	125.99678	-627.26562	-715.18469	129.57953	-571.54547	-544.96033	531.71655	-679.88904	-556.36041	519.27563	-585.92395	-646.73114	966.14117	-786.36426	-688.93414	1174.7102	-508.56363	-478.20789	957.65594	-167.42448	-514.0459	1040.5503	-151.68179	-405.78867	846.302	216.95935	-441.16422	931.57355	256.3222
547	2.725	-716.63037	125.17585	-628.05994	-715.87274	128.99466	-571.85498	-545.91034	531.02618	-680.21716	-559.04413	518.38147	-585.9906	-644.21198	965.85852	-785.57794	-692.27191	1174.5171	-508.74316	-480.36292	952.82782	-167.535	-515.38092	1036.1498	-152.03479	-415.33688	835.33173	216.89114	-450.62363	919.96863	256.27594
548	2.73	-717.20062	124.10729	-628.62811	-716.87799	127.61829	-572.90808	-547.29608	530.16553	-680.30847	-561.91364	517.79443	-586.06	-641.76752	965.31244	-784.58704	-695.20032	1174.0731	-508.9274	-481.44525	948.26154	-168.12549	-516.4408	1031.6132	-152.30084	-430.37695	820.38373	219.91573	-460.28711	907.34692	255.56258
549	2.735	-717.90979	123.08904	-629.10339	-717.70239	127.35172	-572.33374	-548.40863	529.71149	-680.63562	-564.84192	517.37598	-586.11383	-639.40015	964.59113	-783.50153	-697.99774	1173.4271	-508.93326	-482.4375	943.78339	-168.60193	-517.38049	1026.9835	-152.47549	-434.88647	810.62543	213.30528	-470.50226	894.18335	254.68326
550	2.74	-718.72626	122.0458	-629.37683	-718.71295	126.27414	-572.59052	-550.19507	528.88556	-680.61462	-567.8136	517.12311	-586.13257	-637.20966	963.82532	-782.45709	-700.68646	1172.4537	-509.00562	-483.3111	939.09052	-169.11794	-518.039	1022.1613	-152.70055	-448.02948	795.18506	212.25468	-481.13153	880.49896	253.32857
551	2.745	-719.51465	120.92709	-629.66833	-719.28888	124.67271	-573.89679	-551.15387	529.09583	-680.90515	-570.784	516.91949	-586.11371	-635.20465	963.1142	-781.6192	-704.06512	1170.7213	-508.94308	-485.11646	933.66687	-168.63254	-518.90692	1017.2313	-152.6424	-457.89163	780.88623	208.49986	-492.11502	866.4278	251.43201
552	2.75	-720.45984	119.67471	-629.63287	-720.34021	123.54768	-573.88177	-553.44543	528.34064	-680.43292	-573.56067	516.85278	-586.16174	-633.46014	962.30847	-780.66101	-706.62915	1169.1444	-508.79456	-485.90842	929.12268	-169.16467	-519.80658	1012.1465	-152.57333	-469.11371	765.09045	203.23811	-503.34805	851.89746	249.03699
553	2.755	-721.36902	118.48412	-629.54083	-721.40765	122.60968	-572.99927	-554.54175	528.42548	-680.75647	-576.21942	516.47559	-586.04083	-631.72302	961.64868	-779.89728	-709.13232	1167.4724	-508.61984	-486.25699	923.87939	-169.90515	-520.9035	1006.9519	-152.46724	-482.02841	752.98962	204.31238	-514.81079	836.98291	246.02359
554	2.76	-722.25562	117.24364	-629.2951	-722.40955	121.15832	-573.19312	-557.13733	527.5614	-680.09912	-578.8053	516.02832	-586.03223	-630.06732	961.17474	-779.4823	-711.91913	1165.8652	-508.59976	-487.59232	919.22815	-170.42537	-522.42877	1001.7589	-152.26018	-492.86502	738.74921	199.53461	-526.61633	821.84149	242.52597
555	2.765	-723.15729	115.98064	-628.92346	-723.14825	119.81741	-573.21991	-558.95874	527.02618	-679.88531	-581.2218	515.5191	-585.89752	-628.47247	960.87854	-779.14758	-713.96967	1164.3453	-508.53854	-489.56821	914.08069	-170.61697	-524.44025	996.47205	-151.94722	-497.9953	726.72137	187.44373	-538.62042	806.32684	238.36832
556	2.77	-723.95538	114.80347	-628.60889	-724.5531	118.3959	-572.80017	-560.88605	526.30121	-679.72418	-583.75092	514.78021	-585.73706	-627.09625	960.64178	-778.91479	-715.83636	1162.6332	-508.41998	-489.91879	909.35962	-171.97835	-526.98169	991.02563	-151.64679	-509.34143	712.38434	181.86266	-550.9032	790.62219	233.59946
557	2.775	-724.81018	113.58626	-628.38141	-725.45905	117.66352	-571.67615	-562.87866	525.43842	-679.5318	-585.76984	513.97028	-585.60992	-625.63678	960.55371	-778.89185	-717.98315	1160.8972	-508.37982	-491.6459	904.20532	-172.48605	-529.96228	985.3515	-151.45856	-520.85016	697.95953	176.05132	-563.2536	774.65472	228.12592
